<svg version="1.1" id="Layer_1" xmlns="http://www.w3.org/2000/svg" xmlns:xlink="http://www.w3.org/1999/xlink" x="0px" y="0px"
	 viewBox="0 0 1920 433.952" style="enable-background:new 0 0 1920 433.952;" xml:space="preserve">
<g>
	<path style="fill:#FFFFFF;" d="M1546.913,262.423c-10.323-8.099-23.415-13.139-40.026-15.406l-13.876-1.895l13.714-2.846
		c13.04-2.706,23.845-7.931,33.037-15.976c6.403-5.607,10.913-11.6,13.785-18.321c4.467-10.451,5.95-20.766,4.54-31.534
		c-1.711-13.035-6.185-23.781-13.679-32.85c-7.764-9.396-16.816-16.063-27.673-20.381c-10.861-4.319-22.061-6.509-33.291-6.509
		c-0.047,0-0.089,0-0.134,0l-170.677,0.007v258.372l184.05-0.096c3.732-0.008,8.946-0.507,12.457-0.999
		c9.002-1.26,17.791-4.223,26.864-9.059c9.136-4.868,16.684-11.5,22.435-19.712c9.444-13.482,12.915-28.459,10.612-45.786
		C1567.094,284.681,1559.852,272.575,1546.913,262.423z M1469.81,158.405c5.779,0,12.055,0.344,17.967,1.816
		c12.76,3.178,21.011,10.999,23.859,22.62c3.318,13.558-0.498,30.704-16.506,38.445c-5.943,2.875-13.888,4.285-23.199,4.285h-110.57
		l-0.134-67.167H1469.81z M1512.952,320.129c-5.802,7.362-12.755,13.259-27.719,13.259l-123.994-0.018l0.002-67.033h122.661
		c18.29,0,32.565,11.352,35.138,26.251C1520.878,303.22,1518.773,312.744,1512.952,320.129z"/>
	<polygon style="fill:#FFFFFF;" points="889.507,365.367 781.834,117.217 688.679,117.217 688.679,375.564 736.599,375.564 
		736.599,127.653 844.165,375.564 937.426,375.564 937.426,117.217 889.507,117.217 	"/>
	<polygon style="fill:#FFFFFF;" points="387.683,377.971 617.62,377.971 617.62,330.051 435.602,330.051 435.602,268.048 
		609.341,268.048 609.341,224.734 435.602,224.734 435.602,162.73 617.62,162.73 617.62,117.217 387.683,117.217 	"/>
	<polygon style="fill:#FFFFFF;" points="1859,162.73 1859,117.217 1629.063,117.217 1629.063,377.971 1859,377.971 1859,330.051 
		1676.982,330.051 1676.982,268.048 1850.721,268.048 1850.721,224.734 1676.982,224.734 1676.982,162.73 	"/>
	<rect x="61.063" y="117.217" style="fill:#FFFFFF;" width="251.626" height="45.513"/>
	<rect x="61.063" y="332.457" style="fill:#FFFFFF;" width="251.626" height="45.513"/>
	<path style="fill:#FFFFFF;" d="M83.687,306.253c55.009-4.318,87.299-22.775,115.789-39.06
		c25.727-14.708,47.943-27.41,86.365-31.755c2.754-0.311,5.674-0.583,8.679-0.807l0.451-0.037c2.58-0.188,5.246-0.33,7.969-0.443
		c3.304-0.137,6.527-0.219,9.749-0.245v-45.912c-7.429,0.053-14.783,0.349-21.859,0.884l-0.846,0.058
		c-55.007,4.317-87.296,22.774-115.784,39.058c-25.733,14.711-47.951,27.413-86.37,31.758l-0.313,0.032
		c-2.913,0.325-5.879,0.598-8.818,0.812c-2.58,0.187-5.247,0.33-7.967,0.443c-3.304,0.137-6.446,0.219-9.669,0.245v45.912
		c7.432-0.053,14.705-0.35,21.778-0.884L83.687,306.253z"/>
	<path style="fill:#FFFFFF;" d="M1122.519,115.545c-72.812,0-132.049,59.237-132.049,132.049s59.237,132.049,132.049,132.049
		c72.812,0,132.049-59.237,132.049-132.049S1195.331,115.545,1122.519,115.545z M1122.519,331.723
		c-46.39,0-84.129-37.74-84.129-84.129s37.74-84.129,84.129-84.129c46.39,0,84.129,37.74,84.129,84.129
		S1168.909,331.723,1122.519,331.723z"/>
	<rect x="1681.795" y="45.999" style="fill:#FFFFFF;" width="124.473" height="28.098"/>
</g>
</svg>
